<svg width="36" height="38" viewBox="0 0 36 38" fill="none" xmlns="http://www.w3.org/2000/svg">
    <g clip-path="url(#clip0_2854_430)">
        <path d="M19.5394 12.4429H9.50581V23.8844H19.5394V12.4429Z" fill="white"/>
        <path d="M3.77666 19.9599H5.69529L5.21197 18.8487L4.72919 17.7369L3.77666 19.9599ZM35.9128 16.0143H33.7853V23.1161H31.4431V16.0143H29.1648V13.9251H35.7018C35.302 10.8966 34.4764 8.0439 33.0905 5.69909C33.0774 5.67644 33.0655 5.65326 33.0525 5.63062C29.3384 -0.763283 19.2348 -1.87611 10.4867 3.14455C2.65976 7.63575 -1.43083 15.514 0.451463 21.7024L4.13413 13.9251H5.3465L9.50381 22.7872V23.1156H7.00313L6.46068 21.9715H2.99445L2.46502 23.1156H1.00042C1.11325 23.3512 1.23475 23.5836 1.36765 23.8122C1.38067 23.8348 1.39477 23.8569 1.40834 23.8796C5.8271 31.6144 17.9671 36.8944 25.4322 37.9463C27.0667 38.1417 28.7208 37.8051 30.1465 36.9871C31.5723 36.1691 32.6928 34.9137 33.34 33.4092C35.0991 29.0663 36.3468 22.3311 35.9128 16.0143ZM18.6885 23.1161H15.9497L13.9253 19.5657C13.7406 19.5862 13.5551 19.5971 13.3693 19.5986C13.1398 19.6024 12.9413 19.6051 12.7726 19.6051V23.1167H10.3527V13.9251H12.7742V17.5132C12.9677 17.5132 13.1991 17.511 13.4685 17.5067C13.738 17.5024 13.9562 17.4564 14.1233 17.3687C14.3356 17.263 14.4945 17.0635 14.6001 16.7702C14.7406 16.3534 14.8598 15.9298 14.957 15.501C15.0263 15.2239 15.1402 14.9597 15.2944 14.7187C15.4526 14.4735 15.6681 14.27 15.9226 14.1256C16.2244 13.9608 16.5564 13.8579 16.899 13.8232C17.287 13.775 17.7546 13.8081 18.3017 13.9224V15.5398C18.0105 15.522 17.768 15.5576 17.5738 15.645C17.3796 15.7323 17.2483 15.9146 17.1767 16.1971C17.05 16.6842 16.8868 17.1613 16.6885 17.6242C16.5285 17.9967 16.3087 18.3409 16.0376 18.6432C16.4878 19.3262 16.929 20.0122 17.3611 20.7012C17.7933 21.3903 18.2343 22.0764 18.6842 22.7597V23.1156L18.6885 23.1161ZM27.9237 23.1161H25.5022V18.3683L20.6359 23.142H19.9182V13.9251H22.3397V18.4076L27.1132 13.9251H27.9269V23.1161H27.9237Z" fill="#0065BD"/>
        <path d="M0.453514 21.7024L4.13618 13.925H5.34855L9.50586 22.7872V23.1156H7.00518L6.46274 21.9715H2.99596L2.46436 23.1156H0.999758C0.999758 23.1156 0.813699 22.7285 0.453514 21.7024Z" fill="white"/>
        <path d="M3.7771 19.9599L4.72964 17.7375L5.69573 19.9599H3.7771Z" fill="#0065BD"/>
        <path d="M19.9191 23.1426V13.923H22.3406V18.4056L27.1141 13.923H27.9278V23.1162H25.5025V18.3689L20.6362 23.1426H19.9191Z" fill="white"/>
        <path d="M33.7858 23.1161H31.4435V16.0143H29.1652V13.925H35.7022C35.7022 13.925 35.789 14.4701 35.9111 16.0143H33.7836V23.1161H33.7858Z" fill="white"/>
    </g>
    <defs>
        <clipPath id="clip0_2854_430">
            <rect width="36" height="38" fill="white" transform="translate(0 0.00128174)"/>
        </clipPath>
    </defs>
</svg>