
<svg width="134" height="40" viewBox="0 0 134 40" fill="none" xmlns="http://www.w3.org/2000/svg">
      <g clipPath="url(#clip0_3058_1226)">
        <path d="M128.395 -0.160034H4.93827C2.21094 -0.160034 0 2.07854 0 4.83997V34.84C0 37.6014 2.21094 39.84 4.93827 39.84H128.395C131.122 39.84 133.333 37.6014 133.333 34.84V4.83997C133.333 2.07854 131.122 -0.160034 128.395 -0.160034Z" fill="#404040"/>
        <g clipPath="url(#clip1_3058_1226)">
          <path fillRule="evenodd" clipRule="evenodd" d="M25.4635 33.88C19.2424 33.88 16.1319 33.88 14.1992 31.9398C12.2666 29.9997 12.2666 26.8771 12.2666 20.6319L12.2666 19.5279C12.2666 13.2827 12.2666 10.1601 14.1992 8.21998C16.1319 6.27997 19.2424 6.27997 25.4635 6.27997L26.5633 6.27997C32.7843 6.27997 35.8949 6.27997 37.8275 8.21998C39.7602 10.1601 39.7602 13.2827 39.7602 19.5279V20.6319C39.7602 26.8771 39.7602 29.9997 37.8275 31.9398C35.8949 33.88 32.7843 33.88 26.5633 33.88H25.4635Z" fill="#0077FF"/>
          <path d="M28.1649 23.2888C27.4242 23.1031 26.9048 22.4379 26.9048 21.6749V12.6868C26.9048 11.8202 27.7205 11.1847 28.5618 11.3957L33.89 12.7319C34.6307 12.9176 35.1501 13.5828 35.1501 14.3457V23.3339C35.1501 24.2004 34.3345 24.836 33.4931 24.625L28.1649 23.2888Z" fill="white"/>
          <path d="M18.1369 27.4275C17.3961 27.2417 16.8767 26.5765 16.8767 25.8136V16.8255C16.8767 15.9589 17.6924 15.3234 18.5337 15.5344L23.8619 16.8705C24.6026 17.0563 25.122 17.7215 25.122 18.4844V27.4725C25.122 28.3391 24.3063 28.9746 23.465 28.7636L18.1369 27.4275Z" fill="white"/>
          <path d="M23.151 25.3582C22.4102 25.1725 21.8909 24.5073 21.8909 23.7443V14.7562C21.8909 13.8897 22.7066 13.2541 23.5479 13.4651L28.8761 14.8012C29.6168 14.987 30.1362 15.6522 30.1362 16.4151V25.4033C30.1362 26.2698 29.3205 26.9054 28.4791 26.6944L23.151 25.3582Z" fill="white"/>
          <path d="M26.6382 26.2351C26.4049 26.1754 26.2388 25.9683 26.2307 25.7267L25.9989 18.8625C25.9319 17.954 25.2601 17.2315 24.5581 17.0188C24.5186 17.0068 24.4766 17.0229 24.4532 17.0569C24.4295 17.0915 24.4387 17.1394 24.4718 17.1651C24.6451 17.2998 25.1222 17.7395 25.1222 18.4977L25.1208 25.8491L26.6382 26.2351Z" fill="#0077FF"/>
          <path d="M31.6536 24.1638C31.4205 24.1052 31.2542 23.8987 31.2461 23.6576L31.0143 16.7939C30.9472 15.8854 30.2755 15.1629 29.5734 14.9501C29.534 14.9381 29.492 14.9542 29.4686 14.9883C29.4449 15.0229 29.4541 15.0707 29.4871 15.0965C29.6605 15.2312 30.1376 15.6708 30.1376 16.429L30.1362 23.7829L31.6536 24.1638Z" fill="#0077FF"/>
          <path d="M55.5873 27.0618C57.6693 26.5289 59.0374 24.9303 59.0374 22.8384C59.0374 20.253 56.9751 18.4374 54.0802 18.4374H48.9248V32.3509H51.3042V27.2394H52.9898L56.6777 32.3509H59.4736L55.5873 27.0618ZM54.0802 20.6083C55.5673 20.6083 56.5986 21.5161 56.5986 22.8384C56.5986 24.1606 55.5673 25.0685 54.0802 25.0685H51.3042V20.6083H54.0802Z" fill="white"/>
          <path d="M64.829 32.5482C66.0781 32.5482 67.2281 31.8969 67.8827 30.8115L68.3385 32.3508H70.044V22.0884H67.7636V28.0288C67.7636 29.4892 66.792 30.5154 65.4635 30.5154C64.1548 30.5154 63.2425 29.4892 63.2425 28.0288V22.0884H60.9624V28.2853C60.9624 30.7523 62.6279 32.5482 64.829 32.5482Z" fill="white"/>
          <path d="M77.3212 32.5482C79.9584 32.5482 82.1397 31.0483 82.1397 28.5616C82.1397 25.7789 79.8593 24.9698 77.8963 24.2988C76.3695 23.7857 75.0411 23.312 75.0411 22.0687C75.0411 20.9832 76.0521 20.4109 77.2418 20.4109C78.4912 20.4109 79.3835 21.0622 79.8793 22.1673L82.1397 21.7924C81.4258 19.6215 79.6212 18.24 77.1628 18.24C74.6246 18.24 72.6019 19.7004 72.6019 22.1871C72.6019 24.9895 74.8824 25.7592 76.8453 26.4105C78.3525 26.9039 79.7006 27.3775 79.7006 28.6406C79.7006 29.7458 78.6896 30.3773 77.3412 30.3773C75.7943 30.3773 74.9617 29.6471 74.2281 28.3248L71.9277 28.7195C72.602 31.0681 74.7436 32.5482 77.3212 32.5482Z" fill="white"/>
          <path d="M88.3427 30.3773C87.5695 30.3773 87.1927 30.0023 87.1927 29.2326V24.0619H90.266V22.0884H87.1927V19.1281H85.4875L84.9123 22.0884H83.2271V24.0619H84.9123V29.2326C84.9123 31.2456 86.0823 32.3508 88.3427 32.3508H90.266L90.4644 30.3773H88.3427Z" fill="white"/>
          <path d="M96.9807 32.5482C100.213 32.5482 102.493 30.3378 102.493 27.2196C102.493 24.1014 100.213 21.8911 96.9807 21.8911C93.7487 21.8911 91.4683 24.1014 91.4683 27.2196C91.4683 30.3378 93.7487 32.5482 96.9807 32.5482ZM96.9807 30.476C95.1168 30.476 93.8477 29.1537 93.8477 27.2196C93.8477 25.2855 95.1168 23.9633 96.9807 23.9633C98.8447 23.9633 100.113 25.2855 100.113 27.2196C100.113 29.1537 98.8447 30.476 96.9807 30.476Z" fill="white"/>
          <path d="M106.756 32.3508V26.292C106.756 24.9895 107.39 24.2593 108.779 24.2593H110.087L109.889 22.0884H109.453C108.243 22.0884 107.311 22.4239 106.617 23.5686L106.181 22.0884H104.476V32.3508H106.756Z" fill="white"/>
          <path d="M121.307 27.1012C121.307 24.1409 119.087 21.8911 115.954 21.8911C112.821 21.8911 110.6 24.1212 110.6 27.2196C110.6 30.3181 112.821 32.5482 115.954 32.5482C118.095 32.5482 120.118 31.5417 120.891 29.5879L118.75 29.2327C118.254 29.9629 117.302 30.476 116.093 30.476C114.348 30.476 113.198 29.4103 112.979 27.8314H121.268C121.288 27.6143 121.307 27.3775 121.307 27.1012ZM115.954 23.8646C117.381 23.8646 118.452 24.7724 118.829 26.0552H113.118C113.495 24.7329 114.566 23.8646 115.954 23.8646Z" fill="white"/>
          <path d="M49.1174 14.9501V12.9408H49.2483C49.4179 12.9408 49.5536 12.8991 49.6553 12.8157C49.7571 12.7322 49.8419 12.5654 49.9098 12.3152C49.9825 12.06 50.0382 11.6847 50.077 11.1891L50.2878 8.45117H53.5153V12.9408H54.264V14.9501H53.5153V13.64H49.8662V14.9501H49.1174ZM52.7665 12.9408V9.15037H50.9783L50.8257 11.2259C50.7675 12.0551 50.6173 12.6267 50.375 12.9408H52.7665Z" fill="white"/>
          <path d="M56.6441 13.7136C56.2612 13.7136 55.9196 13.6302 55.6191 13.4633C55.3186 13.2965 55.0836 13.0634 54.914 12.7641C54.7444 12.4648 54.6596 12.1238 54.6596 11.7411C54.6596 11.3584 54.7444 11.0174 54.914 10.7181C55.0836 10.4187 55.3186 10.1857 55.6191 10.0189C55.9196 9.84712 56.2612 9.76125 56.6441 9.76125C57.0269 9.76125 57.3685 9.84712 57.669 10.0189C57.9695 10.1857 58.2045 10.4187 58.3741 10.7181C58.5437 11.0174 58.6285 11.3584 58.6285 11.7411C58.6285 12.1238 58.5437 12.4648 58.3741 12.7641C58.2045 13.0634 57.9695 13.2965 57.669 13.4633C57.3685 13.6302 57.0269 13.7136 56.6441 13.7136ZM56.6441 13.0512C57.0124 13.0512 57.3104 12.931 57.5382 12.6905C57.7708 12.4501 57.8871 12.1336 57.8871 11.7411C57.8871 11.3486 57.7708 11.0321 57.5382 10.7917C57.3104 10.5463 57.0124 10.4237 56.6441 10.4237C56.2758 10.4237 55.9777 10.5463 55.75 10.7917C55.5222 11.0321 55.4083 11.3486 55.4083 11.7411C55.4083 12.1287 55.5222 12.4452 55.75 12.6905C55.9777 12.931 56.2758 13.0512 56.6441 13.0512Z" fill="white"/>
          <path d="M61.1225 13.7136C60.7494 13.7136 60.4126 13.6302 60.1121 13.4633C59.8165 13.2916 59.5863 13.0561 59.4215 12.7568C59.2568 12.4575 59.1744 12.1189 59.1744 11.7411C59.1744 11.3584 59.2568 11.0174 59.4215 10.7181C59.5863 10.4187 59.8165 10.1857 60.1121 10.0189C60.4077 9.84712 60.7445 9.76125 61.1225 9.76125C61.5247 9.76125 61.8834 9.85939 62.1984 10.0557C62.5182 10.2519 62.746 10.5341 62.8817 10.9021L62.2129 11.0125C62.1257 10.8358 61.9876 10.6935 61.7986 10.5856C61.6144 10.4776 61.4036 10.4237 61.1661 10.4237C60.7978 10.4237 60.4974 10.5463 60.2648 10.7917C60.037 11.037 59.9231 11.3535 59.9231 11.7411C59.9231 12.1287 60.037 12.4452 60.2648 12.6905C60.4974 12.931 60.7978 13.0512 61.1661 13.0512C61.4133 13.0512 61.6314 12.9947 61.8204 12.8819C62.0142 12.769 62.1547 12.6194 62.242 12.4329L62.9107 12.5433C62.775 12.9162 62.5424 13.2057 62.2129 13.4118C61.8882 13.613 61.5247 13.7136 61.1225 13.7136Z" fill="white"/>
          <path d="M65.1102 13.64H64.3978V10.4973H63.0966V9.83485H66.4113V10.4973H65.1102V13.64Z" fill="white"/>
          <path d="M69.7768 9.83485H70.511L68.9408 14.2141C68.8245 14.5428 68.6719 14.7808 68.4829 14.928C68.2939 15.0752 68.0419 15.1488 67.7269 15.1488H67.1672L67.1017 14.4864H67.7705C67.911 14.4864 68.0201 14.4545 68.0976 14.3907C68.1751 14.3318 68.2406 14.2263 68.2939 14.0742L68.3738 13.8534L66.7019 9.83485H67.4652L68.6573 12.7715H68.7591L69.7768 9.83485Z" fill="white"/>
          <path d="M71.8675 13.64H71.1551V9.83485H74.3535V13.64H73.6412V10.4973H71.8675V13.64Z" fill="white"/>
          <path d="M77.8587 11.3878V9.83485H78.5711V13.64H77.8587V12.0502H76.0487V13.64H75.3363V9.83485H76.0487V11.3878H77.8587Z" fill="white"/>
          <path d="M81.3194 13.7136C80.9365 13.7136 80.5949 13.6302 80.2944 13.4633C79.994 13.2965 79.7589 13.0634 79.5893 12.7641C79.4197 12.4648 79.3349 12.1238 79.3349 11.7411C79.3349 11.3584 79.4197 11.0174 79.5893 10.7181C79.7589 10.4187 79.994 10.1857 80.2944 10.0189C80.5949 9.84712 80.9365 9.76125 81.3194 9.76125C81.7022 9.76125 82.0439 9.84712 82.3443 10.0189C82.6448 10.1857 82.8798 10.4187 83.0494 10.7181C83.219 11.0174 83.3038 11.3584 83.3038 11.7411C83.3038 12.1238 83.219 12.4648 83.0494 12.7641C82.8798 13.0634 82.6448 13.2965 82.3443 13.4633C82.0439 13.6302 81.7022 13.7136 81.3194 13.7136ZM81.3194 13.0512C81.6877 13.0512 81.9857 12.931 82.2135 12.6905C82.4461 12.4501 82.5624 12.1336 82.5624 11.7411C82.5624 11.3486 82.4461 11.0321 82.2135 10.7917C81.9857 10.5463 81.6877 10.4237 81.3194 10.4237C80.9511 10.4237 80.653 10.5463 80.4253 10.7917C80.1975 11.0321 80.0836 11.3486 80.0836 11.7411C80.0836 12.1287 80.1975 12.4452 80.4253 12.6905C80.653 12.931 80.9511 13.0512 81.3194 13.0512Z" fill="white"/>
          <path d="M88.3074 11.6454C88.5012 11.719 88.6563 11.8392 88.7726 12.0061C88.8938 12.168 88.9543 12.3593 88.9543 12.5801C88.9543 12.7813 88.8962 12.9629 88.7799 13.1248C88.6684 13.2867 88.5109 13.4143 88.3074 13.5075C88.1039 13.5958 87.8712 13.64 87.6096 13.64H85.8141V9.83485H87.5441C87.7913 9.83485 88.0118 9.87901 88.2056 9.96733C88.3995 10.0557 88.5497 10.1759 88.6563 10.328C88.7678 10.4801 88.8235 10.6543 88.8235 10.8505C88.8235 11.037 88.7775 11.1989 88.6854 11.3363C88.5982 11.4688 88.4722 11.5718 88.3074 11.6454ZM86.5265 10.4457V11.3805H87.5441C87.7089 11.3805 87.8446 11.3387 87.9512 11.2553C88.0578 11.167 88.1111 11.0542 88.1111 10.9168C88.1111 10.7794 88.0578 10.6665 87.9512 10.5782C87.8446 10.4899 87.7089 10.4457 87.5441 10.4457H86.5265ZM87.6096 13.0291C87.7985 13.0291 87.9512 12.98 88.0675 12.8819C88.1838 12.7838 88.242 12.6562 88.242 12.4992C88.242 12.3422 88.1838 12.2146 88.0675 12.1165C87.9512 12.0183 87.7985 11.9693 87.6096 11.9693H86.5265V13.0291H87.6096Z" fill="white"/>
        </g>
      </g>
      <defs>
        <clipPath id="clip0_3058_1226">
          <rect width="133.333" height="40" fill="white"/>
        </clipPath>
        <clipPath id="clip1_3058_1226">
          <rect width="109.037" height="27.6" fill="white" transform="translate(12.2666 6.27997)"/>
        </clipPath>
      </defs>

    </svg>