
<svg width="38" height="38" viewBox="0 0 38 38" fill="none" xmlns="http://www.w3.org/2000/svg">
    <rect width="38" height="38" rx="8" fill="#404040"/>
    <path fill-rule="evenodd" clip-rule="evenodd" d="M27.8836 23.2883C27.8619 23.2414 27.8416 23.2025 27.8227 23.1713C27.5108 22.6095 26.9147 21.9199 26.0348 21.1024L26.0162 21.0837L26.0069 21.0745L25.9975 21.0651H25.988C25.5887 20.6844 25.3358 20.4284 25.2299 20.2974C25.0361 20.0477 24.9927 19.7951 25.0986 19.539C25.1734 19.3456 25.4545 18.9371 25.9411 18.3129C26.1971 17.9821 26.3998 17.717 26.5495 17.5173C27.6292 16.0818 28.0973 15.1646 27.9537 14.7652L27.8979 14.6718C27.8605 14.6156 27.7637 14.5642 27.6079 14.5173C27.4517 14.4705 27.2521 14.4628 27.0086 14.494L24.3128 14.5126C24.2691 14.4971 24.2067 14.4986 24.1255 14.5173C24.0443 14.5361 24.0037 14.5455 24.0037 14.5455L23.9568 14.5689L23.9196 14.5971C23.8884 14.6157 23.854 14.6485 23.8166 14.6953C23.7793 14.7419 23.7481 14.7967 23.7232 14.8591C23.4297 15.6142 23.096 16.3163 22.7214 16.9653C22.4905 17.3522 22.2785 17.6876 22.0848 17.9716C21.8914 18.2555 21.7291 18.4646 21.5982 18.5987C21.467 18.7329 21.3487 18.8404 21.2424 18.9216C21.1362 19.0028 21.0552 19.0372 20.9991 19.0246C20.9429 19.012 20.8899 18.9996 20.8398 18.9871C20.7525 18.9309 20.6823 18.8545 20.6293 18.7578C20.5761 18.6611 20.5403 18.5393 20.5216 18.3927C20.503 18.2459 20.492 18.1197 20.4888 18.0135C20.4859 17.9075 20.4872 17.7576 20.4936 17.5642C20.5001 17.3706 20.503 17.2397 20.503 17.171C20.503 16.9338 20.5076 16.6764 20.5169 16.3987C20.5263 16.121 20.534 15.901 20.5404 15.7389C20.5467 15.5766 20.5497 15.405 20.5497 15.224C20.5497 15.043 20.5387 14.9011 20.5169 14.798C20.4954 14.6952 20.4624 14.5953 20.4189 14.4985C20.3751 14.4017 20.311 14.3269 20.227 14.2738C20.1427 14.2208 20.038 14.1787 19.9134 14.1474C19.5826 14.0725 19.1614 14.032 18.6495 14.0257C17.4889 14.0133 16.743 14.0882 16.4123 14.2505C16.2812 14.3191 16.1627 14.4127 16.0566 14.5312C15.9443 14.6686 15.9286 14.7435 16.0097 14.7558C16.3842 14.8119 16.6493 14.9461 16.8053 15.1583L16.8616 15.2707C16.9053 15.3518 16.949 15.4955 16.9927 15.7014C17.0363 15.9073 17.0645 16.135 17.0769 16.3845C17.108 16.8402 17.108 17.2302 17.0769 17.5547C17.0456 17.8793 17.0161 18.1319 16.988 18.3129C16.9598 18.4939 16.9177 18.6406 16.8616 18.7529C16.8053 18.8652 16.7679 18.9338 16.7492 18.9588C16.7305 18.9837 16.7149 18.9994 16.7025 19.0055C16.6213 19.0366 16.537 19.0525 16.4497 19.0525C16.3622 19.0525 16.2562 19.0087 16.1314 18.9213C16.0067 18.8339 15.8772 18.7138 15.743 18.5609C15.6088 18.408 15.4574 18.1942 15.2889 17.9197C15.1205 17.6451 14.9457 17.3206 14.7647 16.9462L14.615 16.6747C14.5214 16.5 14.3935 16.2456 14.2312 15.9118C14.0689 15.5779 13.9254 15.2549 13.8006 14.9428C13.7508 14.8118 13.6758 14.712 13.576 14.6434L13.5291 14.6152C13.498 14.5903 13.448 14.5638 13.3794 14.5356C13.3107 14.5075 13.239 14.4873 13.1641 14.4748L10.5992 14.4935C10.3371 14.4935 10.1593 14.5528 10.0656 14.6714L10.0282 14.7275C10.0094 14.7588 10 14.8087 10 14.8774C10 14.946 10.0187 15.0303 10.0562 15.13C10.4306 16.01 10.8378 16.8587 11.2777 17.6762C11.7177 18.4937 12.1 19.1523 12.4244 19.6512C12.7489 20.1505 13.0796 20.6218 13.4167 21.0647C13.7537 21.5078 13.9768 21.7918 14.0859 21.9166C14.1952 22.0415 14.281 22.135 14.3434 22.1974L14.5775 22.422C14.7272 22.5718 14.9472 22.7512 15.2374 22.9602C15.5276 23.1694 15.849 23.3753 16.2016 23.5783C16.5542 23.7809 16.9645 23.9463 17.4326 24.0742C17.9006 24.2022 18.3562 24.2536 18.7993 24.2288H19.8758C20.0941 24.21 20.2595 24.1413 20.372 24.0228L20.4092 23.9759C20.4343 23.9387 20.4577 23.8808 20.4793 23.8029C20.5012 23.7249 20.5121 23.639 20.5121 23.5455C20.5057 23.2772 20.5262 23.0354 20.5729 22.8201C20.6195 22.6049 20.6727 22.4427 20.7322 22.3334C20.7916 22.2242 20.8587 22.1321 20.9333 22.0574C21.0082 21.9825 21.0615 21.9372 21.0928 21.9216C21.1238 21.9059 21.1487 21.8952 21.1674 21.8888C21.3171 21.8389 21.4934 21.8873 21.6964 22.034C21.8993 22.1807 22.0895 22.3618 22.2675 22.577C22.4454 22.7924 22.6591 23.0341 22.9087 23.3024C23.1584 23.5708 23.3768 23.7703 23.5639 23.9015L23.751 24.0138C23.876 24.0888 24.0383 24.1575 24.238 24.2198C24.4374 24.2822 24.6121 24.2978 24.7621 24.2666L27.1584 24.2293C27.3954 24.2293 27.5798 24.19 27.7107 24.1121C27.8417 24.0341 27.9196 23.9482 27.9447 23.8547C27.9698 23.7612 27.9711 23.655 27.9495 23.5363C27.9273 23.4179 27.9054 23.3351 27.8836 23.2883Z" fill="white"/>

</svg>