<svg width="133" height="40" viewBox="0 0 133 40" fill="none" xmlns="http://www.w3.org/2000/svg">
      <rect width="133" height="40" rx="6.75" fill="#404040"/>
      <path d="M45.3962 25.4117H48.8919L47.6404 22.0615C47.4682 21.5987 47.2989 21.0875 47.1319 20.5277C46.9813 21.023 46.817 21.5287 46.6394 22.0454L45.3962 25.4117ZM49.4893 27.0021H44.8068L43.6607 30.1344H41.6021L46.1874 18.4368H48.133L52.8234 30.1344H50.6599L49.4893 27.0021Z" fill="white"/>
      <path d="M58.8962 28.0072C59.3026 27.4611 59.5058 26.6631 59.5058 25.6136C59.5058 24.6396 59.3375 23.9331 59.0013 23.4943C58.6647 23.0558 58.2167 22.8365 57.657 22.8365C57.2695 22.8365 56.9117 22.9282 56.5834 23.111C56.2551 23.294 55.9429 23.5388 55.6469 23.8456V28.5118C55.8461 28.6086 56.0775 28.6854 56.3413 28.7416C56.605 28.7985 56.8661 28.8267 57.1242 28.8267C57.8994 28.8267 58.4898 28.5534 58.8962 28.0072ZM53.653 23.555C53.653 22.9092 53.6314 22.1987 53.5885 21.4238H55.4613C55.5311 21.7844 55.5797 22.1532 55.6066 22.5297C56.3815 21.685 57.2695 21.2622 58.2706 21.2622C58.8519 21.2622 59.3901 21.4089 59.8853 21.7021C60.3802 21.9956 60.7799 22.4584 61.0839 23.0907C61.3882 23.7232 61.5402 24.5266 61.5402 25.5006C61.5402 26.5178 61.3666 27.387 61.0194 28.1081C60.6722 28.8294 60.1866 29.3755 59.5623 29.747C58.9381 30.1182 58.2167 30.304 57.3989 30.304C56.8066 30.304 56.2226 30.2043 55.6469 30.0054V33.6057L53.653 33.7752V23.555Z" fill="white"/>
      <path d="M67.9935 28.0072C68.3999 27.4611 68.6031 26.6631 68.6031 25.6136C68.6031 24.6396 68.4349 23.9331 68.0986 23.4943C67.7621 23.0558 67.3141 22.8365 66.7543 22.8365C66.3669 22.8365 66.009 22.9282 65.6807 23.111C65.3522 23.294 65.0402 23.5388 64.7442 23.8456V28.5118C64.9434 28.6086 65.1746 28.6854 65.4386 28.7416C65.7021 28.7985 65.9631 28.8267 66.2215 28.8267C66.9964 28.8267 67.5871 28.5534 67.9935 28.0072ZM62.7501 23.555C62.7501 22.9092 62.7285 22.1987 62.6855 21.4238H64.5586C64.6285 21.7844 64.677 22.1532 64.7039 22.5297C65.4789 21.685 66.3668 21.2622 67.3679 21.2622C67.9493 21.2622 68.4871 21.4089 68.9826 21.7021C69.4775 21.9956 69.8772 22.4584 70.1815 23.0907C70.4852 23.7232 70.6375 24.5266 70.6375 25.5006C70.6375 26.5178 70.4637 27.387 70.1167 28.1081C69.7695 28.8294 69.2837 29.3755 68.6597 29.747C68.0351 30.1182 67.314 30.304 66.4959 30.304C65.9039 30.304 65.3199 30.2043 64.7442 30.0054V33.6057L62.7501 33.7752V23.555Z" fill="white"/>
      <path d="M74.3005 29.5814C73.4391 29.1053 72.7773 28.4229 72.3146 27.5349C71.8514 26.6469 71.6202 25.5974 71.6202 24.3865C71.6202 23.0735 71.8866 21.9579 72.4194 21.0401C72.9522 20.1228 73.6775 19.4338 74.5949 18.9736C75.5127 18.5135 76.5418 18.2834 77.6831 18.2834C78.3557 18.2834 78.9975 18.3574 79.6085 18.5053C80.2191 18.6535 80.7882 18.8565 81.3159 19.1149L80.8071 20.6487C79.7468 20.1428 78.7351 19.8898 77.7719 19.8898C76.9591 19.8898 76.2474 20.0635 75.6367 20.4107C75.0258 20.7579 74.5506 21.2677 74.2117 21.9405C73.8725 22.6133 73.7031 23.4259 73.7031 24.3784C73.7031 25.2128 73.8335 25.9527 74.0943 26.5985C74.3557 27.2443 74.7674 27.7558 75.3298 28.1323C75.8922 28.5091 76.6013 28.6973 77.457 28.6973C77.8445 28.6973 78.2319 28.6651 78.6194 28.6006C79.0069 28.5361 79.3703 28.4419 79.7093 28.318V25.9527H77.005V24.4027H81.6469V29.3272C80.9794 29.6392 80.2783 29.879 79.5439 30.0457C78.809 30.2123 78.0786 30.2958 77.3519 30.2958C76.1786 30.2958 75.1613 30.058 74.3005 29.5814Z" fill="white"/>
      <path d="M87.5381 28.5197C87.9522 28.3209 88.2914 28.0731 88.5551 27.7771V26.1625C88.0114 26.1035 87.5674 26.0738 87.2231 26.0738C86.3997 26.0738 85.8303 26.2068 85.5159 26.4735C85.2007 26.7395 85.0434 27.099 85.0434 27.551C85.0434 27.9819 85.1578 28.3006 85.3866 28.5077C85.6154 28.7149 85.9261 28.8185 86.3189 28.8185C86.717 28.8185 87.1234 28.719 87.5381 28.5197ZM88.7327 30.1344C88.6626 29.7952 88.6167 29.4107 88.5954 28.98C88.2887 29.3462 87.8893 29.6568 87.3965 29.9125C86.9045 30.1681 86.3485 30.2958 85.7295 30.2958C85.229 30.2958 84.773 30.1976 84.361 30.0011C83.9498 29.8048 83.6226 29.5088 83.3805 29.1131C83.1383 28.7176 83.017 28.2347 83.017 27.664C83.017 26.8192 83.321 26.145 83.9293 25.6417C84.5375 25.1386 85.5519 24.887 86.9727 24.887C87.5055 24.887 88.033 24.9248 88.5551 25V24.8306C88.5551 24.061 88.3909 23.5188 88.0626 23.2037C87.7343 22.8891 87.2634 22.7316 86.6501 22.7316C86.2247 22.7316 85.7701 22.7936 85.2855 22.9172C84.8013 23.0412 84.3759 23.1891 84.0101 23.3613L83.6951 21.9082C84.0503 21.7466 84.5186 21.5987 85.0999 21.4641C85.6813 21.3297 86.2946 21.2622 86.9405 21.2622C87.6941 21.2622 88.3343 21.3766 88.8618 21.6052C89.3893 21.8341 89.801 22.2271 90.097 22.7839C90.393 23.3412 90.541 24.0907 90.541 25.0323V28.4955C90.541 28.8563 90.5623 29.4028 90.6055 30.1344H88.7327Z" fill="white"/>
      <path d="M92.0709 28.0435V17.7506L94.0567 17.5891V27.6883C94.0567 28.0597 94.1199 28.3219 94.2463 28.4755C94.3727 28.6286 94.5732 28.7057 94.8479 28.7057C94.9716 28.7057 95.1466 28.6761 95.3724 28.6168L95.6066 30.0457C95.418 30.1211 95.1882 30.1816 94.9167 30.2272C94.6447 30.2728 94.3876 30.2958 94.1455 30.2958C92.762 30.2958 92.0709 29.5451 92.0709 28.0435Z" fill="white"/>
      <path d="M97.0356 28.0435V17.7506L99.0215 17.5891V27.6883C99.0215 28.0597 99.0847 28.3219 99.2111 28.4755C99.3378 28.6286 99.5383 28.7057 99.8127 28.7057C99.9365 28.7057 100.111 28.6761 100.338 28.6168L100.572 30.0457C100.383 30.1211 100.153 30.1816 99.8815 30.2272C99.6095 30.2728 99.3524 30.2958 99.1103 30.2958C97.7271 30.2958 97.0356 29.5451 97.0356 28.0435Z" fill="white"/>
      <path d="M106.795 24.766C106.755 24.0717 106.581 23.5511 106.269 23.2037C105.957 22.8568 105.539 22.6831 105.019 22.6831C104.512 22.6831 104.091 22.8582 103.755 23.2079C103.419 23.5579 103.197 24.0771 103.096 24.766H106.795ZM108.739 26.0334H103.04C103.131 27.858 104 28.7701 105.648 28.7701C106.056 28.7701 106.475 28.7204 106.904 28.6209C107.331 28.5211 107.741 28.3881 108.133 28.2211L108.571 29.5853C107.595 30.0592 106.501 30.2958 105.285 30.2958C104.357 30.2958 103.579 30.1211 102.944 29.7712C102.307 29.4214 101.829 28.9182 101.509 28.2614C101.19 27.6051 101.03 26.8139 101.03 25.8881C101.03 24.9248 101.199 24.0959 101.539 23.4016C101.877 22.7073 102.349 22.1773 102.955 21.8113C103.56 21.4453 104.259 21.2622 105.051 21.2622C105.875 21.2622 106.56 21.4547 107.112 21.8396C107.664 22.2242 108.072 22.737 108.339 23.3773C108.605 24.0181 108.739 24.7256 108.739 25.5006V26.0334Z" fill="white"/>
      <path d="M110.248 23.6115C110.248 23.1327 110.224 22.4035 110.181 21.4238H112.048C112.08 21.666 112.109 21.9553 112.141 22.2917C112.171 22.628 112.189 22.9011 112.2 23.111C112.432 22.7289 112.659 22.4073 112.883 22.1464C113.107 21.8851 113.368 21.6728 113.667 21.5084C113.965 21.3443 114.304 21.2622 114.688 21.2622C114.995 21.2622 115.256 21.2946 115.477 21.3592L115.227 23.0868C115.035 23.0277 114.819 22.998 114.581 22.998C114.115 22.998 113.704 23.1178 113.355 23.3573C113.005 23.5966 112.632 23.9909 112.232 24.5398V30.1344H110.248V23.6115Z" fill="white"/>
      <path d="M116.597 33.6985C116.307 33.6475 116.067 33.5896 115.88 33.5251L116.243 32.072C116.376 32.1094 116.547 32.1459 116.752 32.1809C116.955 32.2161 117.149 32.2334 117.333 32.2334C118.216 32.2334 118.877 31.6653 119.317 30.5299L119.448 30.207L116.235 21.4238H118.373L119.989 26.332C120.251 27.1718 120.421 27.8149 120.496 28.2614C120.648 27.6318 120.824 27.0021 121.029 26.3724L122.669 21.4238H124.677L121.475 30.2475C121.173 31.0816 120.845 31.7542 120.496 32.2657C120.147 32.7768 119.733 33.1563 119.259 33.404C118.781 33.6513 118.208 33.7752 117.533 33.7752C117.2 33.7752 116.888 33.7499 116.597 33.6985Z" fill="white"/>
      <path fill-rule="evenodd" clip-rule="evenodd" d="M26.9417 7.33342H15.8633C10.6446 7.33342 8.73584 9.24222 8.73584 14.4609V25.5395C8.73584 30.758 10.6446 32.6667 15.8633 32.6667H26.9382C32.1569 32.6667 34.0692 30.758 34.0692 25.5395V14.4609C34.0692 9.24222 32.1604 7.33342 26.9417 7.33342Z" fill="#C91C2E"/>
      <path d="M19.7881 22.0255H20.8041L20.2944 20.8405L19.7881 22.0255ZM19.5379 22.6229L19.2366 23.3125H18.5504L20.0097 20.0022H20.6025L22.0558 23.3125H21.3513L21.0537 22.6229H19.5379ZM30.5787 23.3102H31.2419V20.0022H30.5787V23.3102ZM27.9395 21.8888H29.1616V21.286H27.9395V20.6078H29.7137V20.0043H27.2766V23.3122H29.7777V22.7089H27.9395V21.8888ZM25.3046 22.2797L24.5526 20.0021H24.0043L23.2523 22.2797L22.5206 20.0037H21.8054L22.9598 23.3141H23.516L24.2691 21.1396L25.0219 23.3141H25.5832L26.7347 20.0037H26.0379L25.3046 22.2797ZM17.5382 21.8979C17.5382 22.4365 17.2707 22.7242 16.7851 22.7242C16.2969 22.7242 16.0281 22.4283 16.0281 21.875V20.0041H15.356V21.8979C15.356 22.8297 15.8736 23.3639 16.776 23.3639C17.6872 23.3639 18.2099 22.8195 18.2099 21.8706V20.0021H17.5382V21.8979ZM13.7526 20.0022H14.4243V23.3143H13.7526V21.9693H12.235V23.3143H11.563V20.0022H12.235V21.3383H13.7526V20.0022Z" fill="white"/>
      <path d="M21.4023 15.7852C19.0773 15.7852 17.1855 13.8934 17.1855 11.5683H17.7813C17.7813 13.565 19.4055 15.1894 21.4023 15.1894C23.3991 15.1894 25.0234 13.565 25.0234 11.5683H25.6191C25.6191 13.8934 23.7274 15.7852 21.4023 15.7852Z" fill="white"/>
      <path d="M43.0683 12.8458C42.573 12.5616 42.1822 12.1708 41.898 11.6713C41.6138 11.1719 41.4717 10.6223 41.4717 10.0183C41.4717 9.41437 41.6138 8.86476 41.898 8.3653C42.1822 7.86584 42.573 7.47505 43.0683 7.19084C43.5636 6.90663 44.1132 6.76453 44.7171 6.76453C45.6512 6.76453 46.4203 7.10307 47.0221 7.78225L46.3534 8.43426C46.1382 8.17931 45.8999 7.98705 45.6366 7.85957C45.3733 7.7321 45.0703 7.66731 44.7276 7.66731C44.3033 7.66731 43.9188 7.76344 43.5698 7.95779C43.2229 8.15214 42.9471 8.42799 42.7423 8.78535C42.5396 9.1427 42.4372 9.5523 42.4372 10.0162C42.4372 10.4802 42.5396 10.8898 42.7423 11.2471C42.945 11.6045 43.2208 11.8803 43.5698 12.0726C43.9167 12.2669 44.3033 12.3651 44.7276 12.3651C45.436 12.3651 46.0295 12.0726 46.5101 11.4853L47.1977 12.1457C46.8968 12.4989 46.5331 12.7747 46.111 12.9733C45.6868 13.1697 45.2228 13.27 44.7192 13.27C44.1153 13.27 43.5656 13.1279 43.0704 12.8437L43.0683 12.8458Z" fill="white"/>
      <path d="M48.2656 6.90456H49.2227V9.92429H49.275L51.7556 6.90456H52.9572V6.9568L50.3303 10.0706L53.0972 13.0799V13.1321H51.8433L49.2771 10.2775H49.2248V13.1321H48.2677V6.90247L48.2656 6.90456Z" fill="white"/>
      <path d="M56.0435 6.90454H57.1302L59.4875 13.1342H58.4342L57.8595 11.5334H55.3184L54.7437 13.1342H53.6904L56.0393 6.90454H56.0435ZM57.5482 10.6453L56.8523 8.73519L56.6182 8.02257H56.566L56.3319 8.73519L55.636 10.6453H57.5503H57.5482Z" fill="white"/>
      <path d="M63.0904 10.359C62.7017 10.7018 62.2231 10.8731 61.6547 10.8731C61.2785 10.8731 60.9379 10.7958 60.6328 10.6433C60.3277 10.4907 60.0895 10.2671 59.916 9.9787C59.7426 9.68823 59.6548 9.34759 59.6548 8.95262V6.90881H60.6203V8.78753C60.6203 9.16369 60.731 9.45626 60.9505 9.66106C61.1699 9.86795 61.4666 9.97035 61.8386 9.97035C62.3422 9.97035 62.7602 9.77391 63.0925 9.37894V6.90881H64.0412V13.1385H63.0925V10.3632L63.0904 10.359Z" fill="white"/>
      <path d="M67.2305 6.90454H68.3172L70.6745 13.1342H69.6212L69.0466 11.5334H66.5054L65.9307 13.1342H64.8774L67.2264 6.90454H67.2305ZM68.7352 10.6453L68.0393 8.73519L67.8052 8.02257H67.753L67.5189 8.73519L66.823 10.6453H68.7373H68.7352Z" fill="white"/>
      <path d="M72.2941 7.80942H70.5449V6.90454H74.9899V7.80942H73.2491V13.1342H72.292V7.80942H72.2941Z" fill="white"/>
      <path d="M75.9824 6.90454H76.9395V9.12389H78.2624C78.6511 9.12389 79.0105 9.2033 79.3407 9.36422C79.6709 9.52304 79.9342 9.755 80.1327 10.0601C80.3292 10.3652 80.4274 10.7205 80.4274 11.1259C80.4274 11.5313 80.3292 11.8866 80.1327 12.1917C79.9363 12.4968 79.6709 12.7288 79.3407 12.8918C79.0105 13.0548 78.6511 13.1363 78.2624 13.1363H75.9824V6.90663V6.90454ZM78.3313 12.2377C78.557 12.2377 78.7577 12.1854 78.9311 12.0809C79.1046 11.9764 79.2383 11.8385 79.3303 11.6672C79.4222 11.4958 79.4703 11.314 79.4703 11.1238C79.4703 10.9336 79.4243 10.7518 79.3303 10.5805C79.2383 10.4091 79.1046 10.2712 78.9311 10.1625C78.7577 10.0559 78.557 10.0016 78.3313 10.0016H76.9395V12.2377H78.3313Z" fill="white"/>
      <path d="M83.5099 6.90454H84.4587V10.3506L84.4064 11.5522H84.4587L87.2506 6.90663H88.3373V13.1363H87.3885V9.60454L87.4408 8.40292H87.3885L84.5527 13.1363H83.5078V6.90663L83.5099 6.90454Z" fill="white"/>
      <path d="M90.2118 12.873C89.821 12.6055 89.5514 12.2126 89.4072 11.6902L90.2849 11.3412C90.3602 11.6651 90.5065 11.9222 90.7238 12.1061C90.9411 12.292 91.1982 12.384 91.4928 12.384C91.8126 12.384 92.0842 12.2837 92.3099 12.0831C92.5356 11.8824 92.6485 11.6359 92.6485 11.3391C92.6485 11.1468 92.5941 10.9734 92.4834 10.8125C92.3726 10.6537 92.2222 10.5262 92.032 10.4342C91.8397 10.3423 91.6329 10.2942 91.4051 10.2942H90.891V9.4583H91.3528C91.6663 9.4583 91.9275 9.37262 92.1365 9.20126C92.3455 9.02989 92.45 8.80002 92.45 8.50954C92.45 8.25459 92.3538 8.04352 92.1595 7.87425C91.9651 7.70706 91.7227 7.62138 91.4322 7.62138C91.171 7.62138 90.9516 7.70079 90.7719 7.85544C90.5921 8.01217 90.4668 8.19816 90.3978 8.41132L89.5535 8.06233C89.6747 7.7196 89.8962 7.41658 90.2202 7.15327C90.542 6.88996 90.9495 6.7583 91.4427 6.7583C91.8188 6.7583 92.1553 6.83144 92.4479 6.97982C92.7404 7.12819 92.9703 7.3309 93.1354 7.58794C93.3005 7.84708 93.3841 8.13756 93.3841 8.46147C93.3841 9.06542 93.1208 9.51055 92.5921 9.80103V9.85327C92.8888 9.98702 93.1291 10.1814 93.3151 10.4363C93.5011 10.6913 93.5931 11.0027 93.5931 11.3684C93.5931 11.7341 93.5011 12.0434 93.3193 12.3338C93.1375 12.6243 92.8846 12.8521 92.567 13.0172C92.2472 13.1823 91.892 13.2659 91.497 13.2659C91.0331 13.2659 90.6047 13.1321 90.2139 12.8646L90.2118 12.873Z" fill="white"/>
</svg>