<svg width="157" height="17" viewBox="0 0 157 17" fill="none" version="1.1" xmlns="http://www.w3.org/2000/svg">
    <path fill-rule="evenodd" clip-rule="evenodd" d="M16.3638 5.47383C17.1692 6.27939 17.6128 7.35036 17.6128 8.48944C17.6128 9.62852 17.1692 10.6995 16.3638 11.5048C15.5583 12.3102 14.4873 12.754 13.3482 12.754H4.22477V8.48944V4.22489H13.3482C14.4873 4.22489 15.5583 4.66848 16.3638 5.47383ZM13.3483 16.9789C18.0369 16.9789 21.838 13.178 21.838 8.48943C21.838 3.80082 18.0369 0 13.3483 0H0V8.48943V16.9789H1.54716H3.4513H13.3483ZM64.3054 6.80167C64.9359 7.06832 65.5016 7.44961 65.9869 7.93494C66.4722 8.42027 66.8535 8.98597 67.1202 9.61625C67.3968 10.2702 67.537 10.9634 67.537 11.677C67.537 12.3903 67.3968 13.0838 67.1202 13.7375C66.8535 14.368 66.4722 14.9335 65.9869 15.4188C65.5016 15.9041 64.9359 16.2854 64.3054 16.5521C63.6516 16.8287 62.9584 16.9689 62.2448 16.9689H47.8214C46.6603 16.9689 45.7187 16.0277 45.7187 14.8664C45.7187 13.7051 46.6603 12.7639 47.8214 12.7639H62.2448C62.8442 12.7639 63.3318 12.2761 63.3318 11.677C63.3318 11.0774 62.8442 10.59 62.2448 10.59V10.5969H51.0125C50.2987 10.5969 49.6053 10.4567 48.9511 10.1801C48.3206 9.91322 47.7547 9.53194 47.2692 9.0464C46.7839 8.56107 46.4024 7.99516 46.1357 7.36446C45.8591 6.7105 45.7187 6.01709 45.7187 5.30332C45.7187 4.58976 45.8591 3.89613 46.1357 3.24217C46.4024 2.61168 46.7839 2.04577 47.2692 1.56023C47.7547 1.0747 48.3206 0.69341 48.9511 0.426759C49.6053 0.15014 50.2987 0.00975342 51.0125 0.00975342H64.3259C65.487 0.00975342 66.4286 0.951131 66.4286 2.11223C66.4286 3.27353 65.487 4.21491 64.3259 4.21491H51.0125C50.4121 4.21491 49.9239 4.70314 49.9239 5.30332C49.9239 5.90349 50.4121 6.39173 51.0125 6.39173H62.2448V6.38487C62.9584 6.38487 63.6516 6.52505 64.3054 6.80167ZM44.6577 0H40.4523V10.7622L26.4288 0.625716C25.8274 0.0242977 24.9232 -0.155546 24.1374 0.169876C23.3518 0.495298 22.8394 1.26202 22.8394 2.11223V16.9789H27.0446V6.21667L41.0683 16.3531C41.4705 16.7554 42.0082 16.9691 42.5554 16.9689C42.8262 16.9689 43.0995 16.9166 43.3597 16.809C44.1454 16.4834 44.6577 15.7168 44.6577 14.8664V0ZM153.68 2.04H74.8C74.4244 2.04 74.12 2.34445 74.12 2.72V14.28C74.12 14.6556 74.4244 14.96 74.8 14.96H153.68C154.056 14.96 154.36 14.6556 154.36 14.28V2.72C154.36 2.34445 154.056 2.04 153.68 2.04ZM74.8 0C73.2978 0 72.08 1.21779 72.08 2.72V14.28C72.08 15.7822 73.2978 17 74.8 17H153.68C155.182 17 156.4 15.7822 156.4 14.28V2.72C156.4 1.21779 155.182 0 153.68 0H74.8ZM85.8777 9.1936C85.9411 9.656 86.1542 10.0141 86.5169 10.268C86.8433 10.4947 87.2467 10.608 87.7273 10.608C88.1081 10.608 88.5387 10.4765 89.0193 10.2136C89.5089 9.95067 89.8171 9.8192 89.9441 9.8192C90.1526 9.8192 90.3385 9.90533 90.5017 10.0776C90.6649 10.2499 90.7465 10.4448 90.7465 10.6624C90.7465 11.0704 90.3974 11.4512 89.6993 11.8048C89.0102 12.1493 88.2939 12.3216 87.5505 12.3216C86.4625 12.3216 85.5739 11.9635 84.8849 11.2472C84.2139 10.5491 83.8785 9.65147 83.8785 8.5544C83.8785 7.52987 84.2049 6.6504 84.8577 5.916C85.5377 5.14533 86.3809 4.76 87.3873 4.76C88.3937 4.76 89.2459 5.14987 89.9441 5.9296C90.5878 6.64587 90.9097 7.44373 90.9097 8.3232C90.9097 8.90347 90.6241 9.1936 90.0529 9.1936H85.8777ZM88.9513 7.888C88.8969 7.44373 88.7382 7.0856 88.4753 6.8136C88.1942 6.53253 87.8315 6.392 87.3873 6.392C86.9611 6.392 86.6075 6.53707 86.3265 6.8272C86.0454 7.10827 85.8822 7.46187 85.8369 7.888H88.9513ZM79.0703 6.6368H77.6967C77.1255 6.6368 76.8399 6.3512 76.8399 5.78C76.8399 5.5352 76.9215 5.3312 77.0847 5.168C77.2479 5.0048 77.4519 4.9232 77.6967 4.9232H82.4023C83.0279 4.9232 83.3407 5.2088 83.3407 5.78C83.3407 6.3512 83.0279 6.6368 82.4023 6.6368H81.0287V11.152C81.0287 11.4784 80.9381 11.7413 80.7567 11.9408C80.5754 12.1403 80.3397 12.24 80.0495 12.24C79.7594 12.24 79.5237 12.1403 79.3423 11.9408C79.161 11.7413 79.0703 11.4784 79.0703 11.152V6.6368ZM92.0535 6.5008L93.7127 8.364L91.7271 10.6216C91.5458 10.8211 91.4551 11.0432 91.4551 11.288C91.4551 11.5691 91.5458 11.8003 91.7271 11.9816C91.8994 12.1539 92.1306 12.24 92.4207 12.24C92.7199 12.24 92.9919 12.0949 93.2367 11.8048L94.8551 9.8192L96.4735 11.8048C96.7183 12.0949 96.9903 12.24 97.2895 12.24C97.5797 12.24 97.8109 12.1539 97.9831 11.9816C98.1645 11.8003 98.2551 11.5691 98.2551 11.288C98.2551 11.0432 98.1645 10.8211 97.9831 10.6216L95.9975 8.364L97.6567 6.5008C97.8562 6.26507 97.9559 6.02933 97.9559 5.7936C97.9559 5.53973 97.8517 5.3176 97.6431 5.1272C97.4346 4.9368 97.2034 4.8416 96.9495 4.8416C96.6775 4.8416 96.4373 4.96853 96.2287 5.2224L94.8551 6.936L93.4815 5.2224C93.273 4.96853 93.0327 4.8416 92.7607 4.8416C92.5069 4.8416 92.2757 4.9368 92.0671 5.1272C91.8586 5.3176 91.7543 5.53973 91.7543 5.7936C91.7543 6.02933 91.8541 6.26507 92.0535 6.5008ZM105.667 11.152C105.667 11.4784 105.576 11.7413 105.395 11.9408C105.214 12.1403 104.978 12.24 104.688 12.24C104.398 12.24 104.162 12.1403 103.981 11.9408C103.799 11.7413 103.709 11.4784 103.709 11.152V9.248H101.179V11.152C101.179 11.4784 101.088 11.7413 100.907 11.9408C100.726 12.1403 100.49 12.24 100.2 12.24C99.9098 12.24 99.6741 12.1403 99.4927 11.9408C99.3114 11.7413 99.2207 11.4784 99.2207 11.152V5.9296C99.2207 5.6032 99.3114 5.34027 99.4927 5.1408C99.6741 4.94133 99.9098 4.8416 100.2 4.8416C100.49 4.8416 100.726 4.94133 100.907 5.1408C101.088 5.34027 101.179 5.6032 101.179 5.9296V7.5344H103.709V5.9296C103.709 5.6032 103.799 5.34027 103.981 5.1408C104.162 4.94133 104.398 4.8416 104.688 4.8416C104.978 4.8416 105.214 4.94133 105.395 5.1408C105.576 5.34027 105.667 5.6032 105.667 5.9296V11.152ZM112.939 5.916C112.259 5.14533 111.415 4.76 110.409 4.76C109.403 4.76 108.559 5.14533 107.879 5.916C107.227 6.6504 106.9 7.52987 106.9 8.5544C106.9 9.59707 107.222 10.4811 107.866 11.2064C108.528 11.9499 109.375 12.3216 110.409 12.3216C111.443 12.3216 112.29 11.9499 112.952 11.2064C113.596 10.4811 113.918 9.59707 113.918 8.5544C113.918 7.52987 113.591 6.6504 112.939 5.916ZM109.226 7.208C109.516 6.7728 109.91 6.5552 110.409 6.5552C110.908 6.5552 111.302 6.7728 111.592 7.208C111.837 7.57973 111.959 8.02853 111.959 8.5544C111.959 9.0712 111.832 9.51547 111.579 9.8872C111.298 10.3133 110.908 10.5264 110.409 10.5264C109.91 10.5264 109.52 10.3133 109.239 9.8872C108.986 9.51547 108.859 9.0712 108.859 8.5544C108.859 8.02853 108.981 7.57973 109.226 7.208ZM115.822 6.0112C115.822 5.6848 115.913 5.42187 116.094 5.2224C116.275 5.02293 116.511 4.9232 116.801 4.9232H120.419C120.709 4.9232 120.945 5.02293 121.126 5.2224C121.307 5.42187 121.398 5.6848 121.398 6.0112V11.152C121.398 11.4784 121.307 11.7413 121.126 11.9408C120.945 12.1403 120.709 12.24 120.419 12.24C120.129 12.24 119.893 12.1403 119.712 11.9408C119.53 11.7413 119.44 11.4784 119.44 11.152V6.6368H117.78V8.6632C117.78 9.81467 117.545 10.7077 117.073 11.3424C116.629 11.9408 116.031 12.24 115.278 12.24C115.015 12.24 114.807 12.1493 114.652 11.968C114.498 11.8048 114.421 11.6053 114.421 11.3696C114.421 10.9616 114.621 10.6941 115.02 10.5672C115.255 10.4947 115.437 10.3451 115.564 10.1184C115.736 9.82827 115.822 9.42027 115.822 8.8944V6.0112ZM128.669 5.916C127.989 5.14533 127.146 4.76 126.14 4.76C125.133 4.76 124.29 5.14533 123.61 5.916C122.957 6.6504 122.631 7.52987 122.631 8.5544C122.631 9.59707 122.953 10.4811 123.597 11.2064C124.258 11.9499 125.106 12.3216 126.14 12.3216C127.173 12.3216 128.021 11.9499 128.683 11.2064C129.327 10.4811 129.649 9.59707 129.649 8.5544C129.649 7.52987 129.322 6.6504 128.669 5.916ZM124.957 7.208C125.247 6.7728 125.641 6.5552 126.14 6.5552C126.638 6.5552 127.033 6.7728 127.323 7.208C127.568 7.57973 127.69 8.02853 127.69 8.5544C127.69 9.0712 127.563 9.51547 127.309 9.8872C127.028 10.3133 126.638 10.5264 126.14 10.5264C125.641 10.5264 125.251 10.3133 124.97 9.8872C124.716 9.51547 124.589 9.0712 124.589 8.5544C124.589 8.02853 124.712 7.57973 124.957 7.208ZM130.814 5.78C130.814 5.54427 130.895 5.34027 131.058 5.168C131.222 5.0048 131.426 4.9232 131.67 4.9232H134.962C135.587 4.9232 135.9 5.2088 135.9 5.78C135.9 6.3512 135.587 6.6368 134.962 6.6368H132.772V11.152C132.772 11.4784 132.681 11.7413 132.5 11.9408C132.319 12.1403 132.083 12.24 131.793 12.24C131.503 12.24 131.267 12.1403 131.086 11.9408C130.904 11.7413 130.814 11.4784 130.814 11.152V5.78ZM143.042 11.9408C143.224 11.7413 143.314 11.4784 143.314 11.152V5.9296C143.314 5.6032 143.224 5.34027 143.042 5.1408C142.861 4.94133 142.625 4.8416 142.335 4.8416C141.99 4.8416 141.664 5.04107 141.356 5.44L138.853 8.7584H138.826V5.9296C138.826 5.6032 138.736 5.34027 138.554 5.1408C138.373 4.94133 138.137 4.8416 137.847 4.8416C137.557 4.8416 137.321 4.94133 137.14 5.1408C136.958 5.34027 136.868 5.6032 136.868 5.9296V11.152C136.868 11.4784 136.958 11.7413 137.14 11.9408C137.321 12.1403 137.557 12.24 137.847 12.24C138.155 12.24 138.423 12.0904 138.649 11.7912L141.329 8.2688H141.356V11.152C141.356 11.4784 141.446 11.7413 141.628 11.9408C141.809 12.1403 142.045 12.24 142.335 12.24C142.625 12.24 142.861 12.1403 143.042 11.9408ZM151.279 11.152C151.279 11.4784 151.189 11.7413 151.007 11.9408C150.826 12.1403 150.59 12.24 150.3 12.24C150.01 12.24 149.774 12.1403 149.593 11.9408C149.411 11.7413 149.321 11.4784 149.321 11.152V8.2688H149.294L146.614 11.7912C146.388 12.0904 146.12 12.24 145.812 12.24C145.522 12.24 145.286 12.1403 145.105 11.9408C144.923 11.7413 144.833 11.4784 144.833 11.152V5.9296C144.833 5.6032 144.923 5.34027 145.105 5.1408C145.286 4.94133 145.522 4.8416 145.812 4.8416C146.102 4.8416 146.338 4.94133 146.519 5.1408C146.701 5.34027 146.791 5.6032 146.791 5.9296V8.7584H146.818L149.321 5.44C149.629 5.04107 149.955 4.8416 150.3 4.8416C150.59 4.8416 150.826 4.94133 151.007 5.1408C151.189 5.34027 151.279 5.6032 151.279 5.9296V11.152Z" fill="#FC8507"/>
</svg>