
  <svg xmlns="http://www.w3.org/2000/svg" width="121" height="40" viewBox="0 0 121 40" fill="none">
      <rect x="0.333252" y="0.000488281" width="120" height="40" rx="7" fill="#404040"/>
      <path d="M82.0735 19.2015V21.4925H80.6375V22.9949H82.0735V28.0999C82.0735 29.8431 82.8621 30.5403 84.846 30.5403C85.1946 30.5403 85.5267 30.4988 85.8172 30.449V28.9632C85.5682 28.9881 85.4104 29.0047 85.1365 29.0047C84.2483 29.0047 83.8582 28.5897 83.8582 27.6434V22.9949H85.8172V21.4925H83.8582V19.2015H82.0735Z" fill="white"/>
      <path d="M90.871 30.6648C93.5107 30.6648 95.1293 28.8968 95.1293 25.9666C95.1293 23.053 93.5024 21.2767 90.871 21.2767C88.2314 21.2767 86.6044 23.053 86.6044 25.9666C86.6044 28.8968 88.2231 30.6648 90.871 30.6648ZM90.871 29.0794C89.3188 29.0794 88.4472 27.9422 88.4472 25.9666C88.4472 24.0076 89.3188 22.8621 90.871 22.8621C92.415 22.8621 93.2949 24.0076 93.2949 25.9666C93.2949 27.9339 92.415 29.0794 90.871 29.0794Z" fill="white"/>
      <path d="M96.5142 30.4905H98.2989V25.1531C98.2989 23.8831 99.2535 23.0281 100.607 23.0281C100.922 23.0281 101.453 23.0862 101.603 23.136V21.3763C101.412 21.3265 101.071 21.3016 100.806 21.3016C99.627 21.3016 98.6226 21.949 98.3653 22.8372H98.2325V21.451H96.5142V30.4905Z" fill="white"/>
      <path d="M106.034 22.7957C107.354 22.7957 108.217 23.7171 108.259 25.1365H103.693C103.793 23.7254 104.714 22.7957 106.034 22.7957ZM108.25 28.0501C107.918 28.7557 107.179 29.1458 106.1 29.1458C104.673 29.1458 103.751 28.1414 103.693 26.556V26.4564H110.076V25.8338C110.076 22.9949 108.557 21.2767 106.042 21.2767C103.494 21.2767 101.875 23.1111 101.875 25.9998C101.875 28.8885 103.461 30.6648 106.051 30.6648C108.117 30.6648 109.562 29.6688 109.968 28.0501H108.25Z" fill="white"/>
      <path d="M70.3699 27.1524C70.5076 29.3721 72.3574 30.7917 75.1105 30.7917C78.0529 30.7917 79.894 29.3032 79.894 26.9287C79.894 25.0617 78.8444 24.0293 76.2978 23.4356L74.9298 23.1001C73.3124 22.7216 72.6585 22.214 72.6585 21.3278C72.6585 20.2093 73.6737 19.478 75.1965 19.478C76.6419 19.478 77.6399 20.1921 77.8206 21.3364H79.6962C79.5843 19.2457 77.7432 17.7745 75.2223 17.7745C72.5122 17.7745 70.7055 19.2457 70.7055 21.4568C70.7055 23.2808 71.7293 24.3648 73.9748 24.8896L75.5751 25.2768C77.2183 25.664 77.941 26.2318 77.941 27.1782C77.941 28.2794 76.8054 29.0796 75.2567 29.0796C73.5963 29.0796 72.4434 28.331 72.2799 27.1524H70.3699Z" fill="white"/>
      <path d="M51.8826 21.3016C50.6541 21.3016 49.5916 21.9158 49.0437 22.9451H48.9109V21.451H47.1927V33.4954H48.9773V29.1209H49.1185C49.5916 30.0755 50.6126 30.6399 51.8992 30.6399C54.1819 30.6399 55.6346 28.8387 55.6346 25.9666C55.6346 23.0945 54.1819 21.3016 51.8826 21.3016ZM51.3763 29.0379C49.8821 29.0379 48.9441 27.8592 48.9441 25.9749C48.9441 24.0823 49.8821 22.9036 51.3846 22.9036C52.8953 22.9036 53.8001 24.0574 53.8001 25.9666C53.8001 27.8841 52.8953 29.0379 51.3763 29.0379Z" fill="white"/>
      <path d="M61.8794 21.3016C60.6509 21.3016 59.5884 21.9158 59.0405 22.9451H58.9077V21.451H57.1895V33.4954H58.9741V29.1209H59.1153C59.5884 30.0755 60.6094 30.6399 61.896 30.6399C64.1787 30.6399 65.6314 28.8387 65.6314 25.9666C65.6314 23.0945 64.1787 21.3016 61.8794 21.3016ZM61.3731 29.0379C59.8789 29.0379 58.9409 27.8592 58.9409 25.9749C58.9409 24.0823 59.8789 22.9036 61.3814 22.9036C62.8921 22.9036 63.7969 24.0574 63.7969 25.9666C63.7969 27.8841 62.8921 29.0379 61.3731 29.0379Z" fill="white"/>
      <path d="M43.9907 30.4905H46.0383L41.5559 18.0757H39.4824L35 30.4905H36.9788L38.1231 27.1954H42.855L43.9907 30.4905ZM40.4202 20.3298H40.5665L42.3646 25.5779H38.6135L40.4202 20.3298Z" fill="white"/>
      <path d="M25.1022 20.3013C25.1239 18.6203 26.0267 17.0297 27.4588 16.1492C26.5553 14.8589 25.0421 14.0408 23.4676 13.9916C21.7884 13.8153 20.1605 14.9964 19.3047 14.9964C18.4325 14.9964 17.115 14.0091 15.6962 14.0383C13.847 14.098 12.123 15.1494 11.2233 16.7661C9.28932 20.1145 10.7319 25.0356 12.5845 27.7422C13.5114 29.0676 14.5947 30.548 16.0122 30.4955C17.3992 30.438 17.9173 29.611 19.5916 29.611C21.2503 29.611 21.7363 30.4955 23.1826 30.4621C24.6709 30.438 25.6087 29.1309 26.5031 27.793C27.169 26.8486 27.6815 25.8049 28.0215 24.7005C26.2724 23.9607 25.1043 22.2004 25.1022 20.3013Z" fill="white"/>
      <path d="M22.3706 12.2116C23.1821 11.2374 23.5819 9.98518 23.4851 8.72095C22.2453 8.85117 21.1 9.44373 20.2775 10.3806C19.4732 11.2959 19.0547 12.526 19.1338 13.7419C20.3741 13.7547 21.5934 13.1782 22.3706 12.2116Z" fill="white"/>
      <path d="M36.5964 12.8463C36.1011 12.5621 35.7103 12.1713 35.4261 11.6718C35.1419 11.1724 34.9998 10.6228 34.9998 10.0188C34.9998 9.41486 35.1419 8.86525 35.4261 8.36579C35.7103 7.86633 36.1011 7.47554 36.5964 7.19133C37.0916 6.90712 37.6412 6.76501 38.2452 6.76501C39.1793 6.76501 39.9484 7.10356 40.5502 7.78274L39.8815 8.43475C39.6662 8.1798 39.428 7.98754 39.1647 7.86006C38.9014 7.73258 38.5984 7.6678 38.2556 7.6678C37.8314 7.6678 37.4469 7.76393 37.0979 7.95828C36.751 8.15263 36.4751 8.42848 36.2703 8.78584C36.0676 9.14319 35.9652 9.55279 35.9652 10.0167C35.9652 10.4806 36.0676 10.8902 36.2703 11.2476C36.4731 11.605 36.7489 11.8808 37.0979 12.0731C37.4448 12.2674 37.8314 12.3656 38.2556 12.3656C38.9641 12.3656 39.5576 12.0731 40.0382 11.4858L40.7258 12.1462C40.4248 12.4994 40.0612 12.7752 39.6391 12.9738C39.2148 13.1702 38.7509 13.2705 38.2473 13.2705C37.6433 13.2705 37.0937 13.1284 36.5984 12.8442L36.5964 12.8463Z" fill="white"/>
      <path d="M41.7937 6.90504H42.7508V9.92478H42.8031L45.2836 6.90504H46.4853V6.95729L43.8584 10.0711L46.6253 13.0804V13.1326H45.3714L42.8052 10.278H42.7529V13.1326H41.7958V6.90295L41.7937 6.90504Z" fill="white"/>
      <path d="M49.5718 6.90503H50.6585L53.0158 13.1347H51.9626L51.3879 11.5339H48.8467L48.272 13.1347H47.2188L49.5677 6.90503H49.5718ZM51.0765 10.6457L50.3806 8.73568L50.1465 8.02306H50.0943L49.8602 8.73568L49.1643 10.6457H51.0786H51.0765Z" fill="white"/>
      <path d="M56.6186 10.3595C56.2299 10.7023 55.7513 10.8736 55.1829 10.8736C54.8067 10.8736 54.4661 10.7963 54.161 10.6437C53.8559 10.4912 53.6177 10.2676 53.4442 9.97919C53.2708 9.68871 53.183 9.34808 53.183 8.95311V6.9093H54.1485V8.78802C54.1485 9.16418 54.2592 9.45675 54.4787 9.66155C54.6981 9.86843 54.9948 9.97083 55.3668 9.97083C55.8704 9.97083 56.2884 9.77439 56.6207 9.37943V6.9093H57.5694V13.1389H56.6207V10.3637L56.6186 10.3595Z" fill="white"/>
      <path d="M60.7584 6.90503H61.8451L64.2023 13.1347H63.1491L62.5744 11.5339H60.0332L59.4585 13.1347H58.4053L60.7542 6.90503H60.7584ZM62.263 10.6457L61.5671 8.73568L61.3331 8.02306H61.2808L61.0468 8.73568L60.3509 10.6457H62.2651H62.263Z" fill="white"/>
      <path d="M65.822 7.80991H64.0729V6.90503H68.5178V7.80991H66.7771V13.1347H65.8199V7.80991H65.822Z" fill="white"/>
      <path d="M69.5105 6.90503H70.4676V9.12438H71.7905C72.1792 9.12438 72.5386 9.20379 72.8688 9.3647C73.199 9.52353 73.4623 9.75549 73.6608 10.0606C73.8573 10.3657 73.9555 10.721 73.9555 11.1264C73.9555 11.5318 73.8573 11.8871 73.6608 12.1922C73.4644 12.4973 73.199 12.7293 72.8688 12.8923C72.5386 13.0553 72.1792 13.1368 71.7905 13.1368H69.5105V6.90712V6.90503ZM71.8594 12.2382C72.0851 12.2382 72.2857 12.1859 72.4592 12.0814C72.6326 11.9769 72.7664 11.839 72.8583 11.6676C72.9503 11.4963 72.9983 11.3145 72.9983 11.1243C72.9983 10.9341 72.9524 10.7523 72.8583 10.581C72.7664 10.4096 72.6326 10.2717 72.4592 10.163C72.2857 10.0564 72.0851 10.0021 71.8594 10.0021H70.4676V12.2382H71.8594Z" fill="white"/>
      <path d="M77.0379 6.90503H77.9866V10.3511L77.9344 11.5527H77.9866L80.7786 6.90712H81.8653V13.1368H80.9165V9.60503L80.9687 8.4034H80.9165L78.0807 13.1368H77.0358V6.90712L77.0379 6.90503Z" fill="white"/>
      <path d="M83.7397 12.8735C83.349 12.606 83.0794 12.2131 82.9352 11.6907L83.8129 11.3417C83.8881 11.6656 84.0344 11.9226 84.2517 12.1065C84.4691 12.2925 84.7261 12.3845 85.0208 12.3845C85.3405 12.3845 85.6122 12.2842 85.8379 12.0836C86.0636 11.8829 86.1764 11.6363 86.1764 11.3396C86.1764 11.1473 86.1221 10.9739 86.0113 10.813C85.9006 10.6541 85.7501 10.5267 85.56 10.4347C85.3677 10.3428 85.1608 10.2947 84.933 10.2947H84.4189V9.45879H84.8808C85.1942 9.45879 85.4555 9.37311 85.6644 9.20175C85.8734 9.03038 85.9779 8.80051 85.9779 8.51003C85.9779 8.25507 85.8818 8.04401 85.6874 7.87473C85.4931 7.70755 85.2507 7.62187 84.9602 7.62187C84.699 7.62187 84.4795 7.70128 84.2998 7.85593C84.1201 8.01266 83.9947 8.19865 83.9257 8.41181L83.0815 8.06281C83.2027 7.72009 83.4242 7.41707 83.7481 7.15376C84.0699 6.89045 84.4774 6.75879 84.9706 6.75879C85.3468 6.75879 85.6832 6.83193 85.9758 6.98031C86.2684 7.12868 86.4983 7.33139 86.6634 7.58843C86.8285 7.84757 86.912 8.13805 86.912 8.46196C86.912 9.06591 86.6487 9.51103 86.12 9.80151V9.85376C86.4168 9.9875 86.6571 10.1819 86.8431 10.4368C87.0291 10.6918 87.121 11.0031 87.121 11.3689C87.121 11.7346 87.0291 12.0439 86.8473 12.3343C86.6654 12.6248 86.4126 12.8526 86.0949 13.0177C85.7752 13.1828 85.4199 13.2664 85.025 13.2664C84.561 13.2664 84.1326 13.1326 83.7418 12.8651L83.7397 12.8735Z" fill="white"/>

    </svg>